<svg class="mz-svg svg-icon-twitter" width="31" height="26" viewBox="0 0 31 26" fill="none" xmlns="http://www.w3.org/2000/svg">
  <path d="M27.8135 6.47966C27.8332 6.76403 27.8332 7.04845 27.8332 7.33281C27.8332 16.0062 21.4405 26 9.75638 26C6.15673 26 2.81284 24.9234 0 23.0547C0.511441 23.1156 1.00314 23.1359 1.53426 23.1359C4.5044 23.1359 7.23859 22.1 9.42198 20.3328C6.62882 20.2719 4.28807 18.3828 3.48158 15.7828C3.87502 15.8437 4.26839 15.8843 4.6815 15.8843C5.25192 15.8843 5.82239 15.8031 6.35345 15.6609C3.44228 15.0515 1.25884 12.4109 1.25884 9.22186V9.14064C2.10462 9.62815 3.08821 9.93283 4.13065 9.97341C2.41934 8.79526 1.29819 6.78434 1.29819 4.50933C1.29819 3.2906 1.61285 2.17341 2.16365 1.19841C5.29121 5.17965 9.99239 7.77961 15.2639 8.06403C15.1656 7.57653 15.1066 7.06877 15.1066 6.56094C15.1066 2.94528 17.9391 0 21.46 0C23.2893 0 24.9416 0.792185 26.1022 2.07187C27.538 1.78751 28.9149 1.23905 30.1345 0.487503C29.6624 2.01098 28.6592 3.29066 27.3414 4.10311C28.62 3.96099 29.8592 3.59528 31 3.08752C30.1347 4.38747 29.0527 5.54523 27.8135 6.47966V6.47966Z" fill="#909090"></path>
</svg>