<svg class="mz-svg svg-icon-youtube" width="34" height="24" viewBox="0 0 34 24" fill="none" xmlns="http://www.w3.org/2000/svg">
  <path fill-rule="evenodd" clip-rule="evenodd" d="M32.6255 3.66584C32.2423 2.22288 31.1131 1.08646 29.6795 0.700795C27.0809 0 16.6609 0 16.6609 0C16.6609 0 6.24093 0 3.64229 0.700795C2.20864 1.08652 1.07952 2.22289 0.696291 3.66584C0 6.28128 0 11.7382 0 11.7382C0 11.7382 0 17.195 0.696291 19.8105C1.07952 21.2534 2.20864 22.3425 3.64229 22.7282C6.24093 23.429 16.6609 23.429 16.6609 23.429C16.6609 23.429 27.0809 23.429 29.6795 22.7282C31.1131 22.3425 32.2423 21.2534 32.6255 19.8105C33.3218 17.195 33.3218 11.7382 33.3218 11.7382C33.3218 11.7382 33.3218 6.28128 32.6255 3.66584V3.66584ZM13.2529 16.6926V6.78369L21.9619 11.7383L13.2529 16.6926V16.6926Z" fill="#909090"></path>
</svg>