<svg class="mz-svg svg-icon-linkedin" width="28" height="28" viewBox="0 0 28 28" fill="none" xmlns="http://www.w3.org/2000/svg">
  <path fill-rule="evenodd" clip-rule="evenodd" d="M25.382 0H1.94636C0.872506 0 0 0.884686 0 1.97071V25.363C0 26.449 0.872506 27.3337 1.94636 27.3337H25.382C26.4558 27.3337 27.3344 26.449 27.3344 25.363V1.97071C27.3344 0.884686 26.4558 0 25.382 0ZM8.26151 23.4294H4.21008V10.3848H8.26761V23.4294H8.26151ZM6.23578 8.6028C4.93617 8.6028 3.88672 7.54727 3.88672 6.25379C3.88672 4.96031 4.93617 3.90479 6.23578 3.90479C7.52928 3.90479 8.58484 4.96031 8.58484 6.25379C8.58484 7.55337 7.53539 8.6028 6.23578 8.6028H6.23578ZM23.4477 23.429H19.3964V17.0837C19.3964 15.5705 19.3659 13.6242 17.2914 13.6242C15.1803 13.6242 14.857 15.2716 14.857 16.9738V23.429H10.8057V10.3844H14.6922V12.166H14.7471C15.2902 11.141 16.6142 10.061 18.5849 10.061C22.685 10.061 23.4477 12.7639 23.4477 16.2783V23.429Z" fill="#909090"></path>
</svg>