<svg class="mz-svg svg-icon-instagram" width="28" height="28" viewBox="0 0 28 28" fill="none" xmlns="http://www.w3.org/2000/svg">
  <path fill-rule="evenodd" clip-rule="evenodd" d="M13.6778 6.66113C9.79735 6.66113 6.66736 9.79109 6.66736 13.6715C6.66736 17.5519 9.79735 20.6819 13.6778 20.6819C17.5583 20.6819 20.6882 17.5519 20.6882 13.6715C20.6882 9.79109 17.5583 6.66113 13.6778 6.66113ZM13.6779 18.2291C11.1703 18.2291 9.12024 16.1852 9.12024 13.6714C9.12024 11.1577 11.1642 9.11377 13.6779 9.11377C16.1917 9.11377 18.2357 11.1577 18.2357 13.6714C18.2357 16.1852 16.1856 18.2291 13.6779 18.2291H13.6779ZM22.6103 6.37442C22.6103 7.28351 21.8781 8.00957 20.9751 8.00957C20.066 8.00957 19.34 7.27741 19.34 6.37442C19.34 5.47142 20.0721 4.73926 20.9751 4.73926C21.8781 4.73926 22.6103 5.47142 22.6103 6.37442ZM27.2534 8.03388C27.1497 5.84351 26.6494 3.9033 25.0447 2.30476C23.4461 0.706225 21.5059 0.205919 19.3155 0.0960954C17.058 -0.0320318 10.2915 -0.0320318 8.03401 0.0960954C5.84971 0.199817 3.90947 0.700123 2.3048 2.29866C0.700135 3.8972 0.205922 5.83741 0.096097 8.02777C-0.0320323 10.2853 -0.0320323 17.0516 0.096097 19.3091C0.199821 21.4994 0.700135 23.4396 2.3048 25.0382C3.90947 26.6367 5.84361 27.137 8.03401 27.2468C10.2915 27.375 17.058 27.375 19.3155 27.2468C21.5059 27.1431 23.4461 26.6428 25.0447 25.0382C26.6433 23.4396 27.1436 21.4994 27.2534 19.3091C27.3815 17.0516 27.3815 10.2914 27.2534 8.03388H27.2534ZM24.3369 21.7311C23.861 22.9269 22.9397 23.8482 21.7377 24.3302C19.9378 25.0441 15.6668 24.8794 13.6778 24.8794C11.6887 24.8794 7.41167 25.038 5.61786 24.3302C4.42199 23.8543 3.50069 22.933 3.01868 21.7311C2.30482 19.9312 2.46955 15.6603 2.46955 13.6713C2.46955 11.6823 2.31092 7.40525 3.01868 5.61147C3.49458 4.41562 4.41589 3.49432 5.61786 3.01232C7.41777 2.29847 11.6887 2.46321 13.6778 2.46321C15.6668 2.46321 19.9439 2.30457 21.7377 3.01232C22.9336 3.48822 23.8549 4.40952 24.3369 5.61147C25.0507 7.41136 24.886 11.6823 24.886 13.6713C24.886 15.6603 25.0507 19.9373 24.3369 21.7311Z" fill="#909090"></path>
</svg>